#define close_width 12
#define close_height 12
static unsigned char close_bits[] = {
   0xff, 0x0f, 0xff, 0x0f, 0x03, 0x0c, 0x03, 0x0c, 0xf3, 0x0c, 0xf3, 0x0c,
   0xf3, 0x0c, 0xf3, 0x0c, 0x03, 0x0c, 0x03, 0x0c, 0xff, 0x0f, 0xff, 0x0f };
