#define iconify_width 12
#define iconify_height 12
static unsigned char iconify_bits[] = {
   0x00, 0x00, 0x00, 0x00, 0x00, 0x00, 0x00, 0x00, 0x00, 0x00, 0xff, 0x0f,
   0xfe, 0x07, 0xfc, 0x03, 0xf8, 0x01, 0xf0, 0x00, 0x60, 0x00, 0x00, 0x00 };
