#define max_width 12
#define max_height 12
static unsigned char max_bits[] = {
   0x00, 0x00, 0x60, 0x00, 0xf0, 0x00, 0xf8, 0x01, 0xfc, 0x03, 0xfe, 0x07,
   0xff, 0x0f, 0x00, 0x00, 0x00, 0x00, 0x00, 0x00, 0x00, 0x00, 0x00, 0x00 };
